<?xml version="1.0" standalone="no"?>
<!DOCTYPE svg PUBLIC "-//W3C//DTD SVG 20010904//EN"
 "http://www.w3.org/TR/2001/REC-SVG-20010904/DTD/svg10.dtd">
<svg version="1.0" xmlns="http://www.w3.org/2000/svg"
 width="300.000000pt" height="300.000000pt" viewBox="0 0 300.000000 300.000000"
 preserveAspectRatio="xMidYMid meet">
<metadata>
Created by potrace 1.11, written by Peter Selinger 2001-2013
</metadata>
<g transform="translate(0.000000,300.000000) scale(0.100000,-0.100000)"
fill="#000000" stroke="none">
<path d="M0 1500 l0 -1500 1500 0 1500 0 0 1500 0 1500 -1500 0 -1500 0 0
-1500z m2390 724 c123 -42 241 -155 291 -281 19 -48 24 -77 24 -163 0 -98 -2
-110 -32 -173 -118 -249 -411 -330 -657 -182 l-58 35 -142 -129 c-195 -178
-181 -158 -154 -217 34 -73 32 -181 -4 -250 -92 -176 -324 -212 -479 -76 -57
50 -91 124 -97 207 l-4 71 -207 76 -206 76 -36 -33 c-22 -19 -56 -37 -85 -44
-124 -30 -254 72 -254 197 0 114 82 195 196 194 99 -1 183 -70 205 -169 12
-51 14 -53 63 -72 28 -10 119 -44 202 -75 l151 -56 54 54 c30 29 59 55 66 57
8 3 -9 69 -55 212 -51 160 -70 207 -83 207 -37 0 -106 33 -142 68 -25 25 -43
54 -53 89 -49 168 126 303 286 223 123 -63 151 -222 56 -319 l-36 -37 69 -204
c62 -187 70 -205 89 -202 31 5 140 -25 176 -47 l31 -19 160 146 161 146 -37
71 c-47 92 -65 191 -50 277 30 173 150 304 321 354 60 18 200 11 270 -12z"/>
<path d="M2143 2136 c-96 -31 -169 -92 -215 -179 -20 -36 -23 -57 -23 -142 0
-91 3 -105 29 -158 36 -71 108 -140 184 -175 48 -22 71 -27 147 -27 76 0 98 4
145 26 79 37 125 81 160 152 39 81 47 154 26 237 -30 117 -96 194 -210 246
-69 31 -180 41 -243 20z"/>
<path d="M1018 1960 c-27 -28 -30 -36 -25 -73 8 -56 43 -87 100 -87 47 0 56 5
80 40 65 95 -73 202 -155 120z"/>
<path d="M427 1410 c-51 -40 -43 -126 14 -155 75 -39 149 0 149 77 0 82 -98
129 -163 78z"/>
<path d="M1277 1179 c-20 -11 -49 -38 -65 -61 -35 -54 -38 -142 -6 -203 56
-108 220 -141 310 -63 48 42 65 80 65 141 0 62 -10 92 -46 136 -60 70 -176 93
-258 50z"/>
</g>
</svg>
